#!OML:ASF X:\für Bonn\!DataBase\2005_08_10_Bjorn_Final\c3d\bjorn.ASF
:FULLY-SPECIFIED
:DEGREES
122
root 2.14967 18.1896 1.17386 -197.317 -2.13253 177.534
lowerback 8.6709 1.72127 2.00255
upperback 14.79 -0.357636 -0.419917
thorax 11.0845 -1.08027 -1.79554
lowerneck -3.08598 7.12284 -3.38413
upperneck 7.18586 9.92986 -13.9023
head 3.20687 3.93292 -3.28465
rclavicle 1.53064e-014 -9.74045e-015
rhumerus -27.3646 10.2717 -71.2786
rradius 44.4171
rwrist -0.741634
rhand -12.9217 21.0902
rfingers 7.12502
rthumb 13.1687 -8.47388
lclavicle 1.53064e-014 -9.74045e-015
lhumerus -37.3826 -43.8689 76.3766
lradius 81.0574
lwrist 8.42657
lhand -49.6277 -25.0372
lfingers 7.12502
lthumb -22.2317 3.70422
rfemur -1.32789 -4.44483 15.399
rtibia 46.301
rfoot -22.0111 19.1726
rtoes -4.54233
lfemur -19.1007 11.3055 -20.7296
ltibia 52.4781
lfoot -9.68463 -5.72462
ltoes -18.3598
123
root 2.14497 18.2386 1.23013 -196.145 -2.4978 177.375
lowerback 8.15714 1.61962 1.62522
upperback 14.5466 -0.379925 -0.513336
thorax 11.0808 -1.07472 -1.6783
lowerneck -3.36439 7.09558 -3.53508
upperneck 7.22621 9.9312 -13.8261
head 3.25556 3.92056 -3.22802
rclavicle -1.2424e-014 -7.95139e-016
rhumerus -28.1213 9.51999 -71.8858
rradius 44.2782
rwrist -0.664406
rhand -12.8882 20.8785
rfingers 7.12502
rthumb 13.2009 -8.68352
lclavicle -1.2424e-014 -7.95139e-016
lhumerus -38.009 -43.857 76.9161
lradius 80.6872
lwrist 8.05928
lhand -49.7995 -24.9772
lfingers 7.12502
lthumb -22.3967 3.74446
rfemur -2.78298 -4.68856 15.2393
rtibia 46.3127
rfoot -21.7594 18.9341
rtoes -4.94001
lfemur -18.6058 11.3199 -20.9957
ltibia 53.2394
lfoot -11.0477 -4.6475
ltoes -20.679
124
root 2.14033 18.2912 1.28589 -194.952 -2.8922 177.27
lowerback 7.61617 1.49148 1.31067
upperback 14.2851 -0.43064 -0.593833
thorax 11.0754 -1.07518 -1.58231
lowerneck -3.64027 7.06703 -3.68906
upperneck 7.30387 9.9342 -13.7508
head 3.31512 3.90539 -3.17098
rclavicle 3.52843e-015 5.56597e-015
rhumerus -28.8996 8.73255 -72.4991
rradius 44.1462
rwrist -0.553167
rhand -12.9462 20.7219
rfingers 7.12502
rthumb 13.145 -8.84379
lclavicle 3.52843e-015 5.56597e-015
lhumerus -38.6435 -43.8608 77.4978
lradius 80.214
lwrist 7.66579
lhand -50.1086 -25.1162
lfingers 7.12502
lthumb -22.6933 3.5694
rfemur -4.23587 -4.95443 15.1457
rtibia 46.2817
rfoot -21.4703 18.6594
rtoes -5.33811
lfemur -18.126 11.3007 -21.182
ltibia 53.9376
lfoot -12.374 -3.40904
ltoes -22.3776
125
root 2.13581 18.3426 1.34231 -193.728 -3.30086 177.205
lowerback 7.04989 1.35292 1.03007
upperback 13.9864 -0.484093 -0.646791
thorax 11.0448 -1.07111 -1.47457
lowerneck -3.90742 7.03397 -3.8564
upperneck 7.49784 9.9413 -13.6521
head 3.40675 3.88313 -3.10397
rclavicle 1.34677e-014 8.34896e-015
rhumerus -29.7384 7.877 -73.0626
rradius 44.0533
rwrist -0.44557
rhand -12.9246 20.6053
rfingers 7.12502
rthumb 13.1659 -8.95899
lclavicle 1.34677e-014 8.34896e-015
lhumerus -39.2965 -43.8966 78.1609
lradius 79.6784
lwrist 7.43445
lhand -50.3535 -25.3395
lfingers 7.12502
lthumb -22.9283 3.31717
rfemur -5.71001 -5.20071 15.1162
rtibia 46.223
rfoot -21.1456 18.3554
rtoes -5.64483
lfemur -17.6708 11.2159 -21.2962
ltibia 54.5701
lfoot -13.6069 -2.14226
ltoes -23.4993
126
root 2.13093 18.3905 1.39888 -192.487 -3.73933 177.154
lowerback 6.466 1.19536 0.775273
upperback 13.6572 -0.553672 -0.7069
thorax 10.992 -1.06909 -1.38891
lowerneck -4.11329 6.98828 -3.97028
upperneck 7.72754 9.92717 -13.5614
head 3.50063 3.85132 -3.05055
rclavicle 3.52843e-015 -4.96962e-015
rhumerus -30.6232 6.96308 -73.6284
rradius 43.9424
rwrist -0.20772
rhand -12.9083 20.4951
rfingers 7.12502
rthumb 13.1816 -9.06816
lclavicle 3.52843e-015 -4.96962e-015
lhumerus -40.003 -43.925 78.8323
lradius 79.1409
lwrist 7.29062
lhand -50.4064 -25.4188
lfingers 7.12502
lthumb -22.9791 3.23155
rfemur -7.19953 -5.50161 15.0984
rtibia 46.1474
rfoot -20.8346 18.033
rtoes -6.06022
lfemur -17.2002 11.0545 -21.3698
ltibia 55.1004
lfoot -14.7281 -0.92849
ltoes -23.924
127
root 2.12755 18.4368 1.45595 -191.274 -4.19464 177.127
lowerback 5.92497 1.03751 0.534519
upperback 13.3212 -0.627671 -0.745447
thorax 10.91 -1.07116 -1.28811
lowerneck -4.31148 6.93363 -4.13088
upperneck 7.95364 9.89993 -13.4352
head 3.58762 3.8139 -2.98034
rclavicle 5.51627e-015 1.05356e-014
rhumerus -31.5138 6.00575 -74.1458
rradius 43.7634
rwrist 0.172009
rhand -12.9046 20.3963
rfingers 7.12502
rthumb 13.1851 -9.16678
lclavicle 5.51627e-015 1.05356e-014
lhumerus -40.7451 -43.9819 79.552
lradius 78.5946
lwrist 7.19299
lhand -50.4169 -25.3781
lfingers 7.12502
lthumb -22.9892 3.27103
rfemur -8.64763 -5.7491 15.1326
rtibia 46.043
rfoot -20.4957 17.6675
rtoes -6.3449
lfemur -16.6737 10.8427 -21.3703
ltibia 55.515
lfoot -15.7378 0.358992
ltoes -24.1966
128
root 2.12396 18.4869 1.51324 -190.084 -4.68277 177.089
lowerback 5.39758 0.873235 0.27704
upperback 12.9923 -0.716506 -0.772064
thorax 10.8318 -1.08551 -1.16714
lowerneck -4.53112 6.87692 -4.27707
upperneck 8.20238 9.87481 -13.3284
head 3.68716 3.77386 -2.9173
rclavicle 9.69075e-015 -3.77691e-015
rhumerus -32.3654 5.05911 -74.6118
rradius 43.5743
rwrist 0.559859
rhand -12.8701 20.2877
rfingers 7.12502
rthumb 13.2184 -9.27317
lclavicle 9.69075e-015 -3.77691e-015
lhumerus -41.4754 -43.9991 80.2742
lradius 78.0649
lwrist 7.14647
lhand -50.3272 -25.2928
lfingers 7.12502
lthumb -22.9031 3.36695
rfemur -10.0348 -5.97118 15.161
rtibia 45.8872
rfoot -20.1456 17.2677
rtoes -6.6116
lfemur -16.084 10.5503 -21.3455
ltibia 55.7961
lfoot -16.5887 1.72751
ltoes -24.3487
129
root 2.12198 18.5385 1.57034 -188.939 -5.1883 177.027
lowerback 4.93438 0.705921 -0.00852964
upperback 12.6484 -0.81091 -0.799647
thorax 10.7016 -1.10679 -1.03118
lowerneck -4.73312 6.81473 -4.44802
upperneck 8.48829 9.84331 -13.1695
head 3.79105 3.73077 -2.83547
rclavicle 5.1684e-015 1.0138e-014
rhumerus -33.2656 4.11076 -75.0535
rradius 43.4281
rwrist 0.896534
rhand -12.769 20.1313
rfingers 7.12502
rthumb 13.3159 -9.42327
lclavicle 5.1684e-015 1.0138e-014
lhumerus -42.2711 -44.0238 81.0493
lradius 77.5254
lwrist 7.08626
lhand -50.2007 -25.1506
lfingers 7.12502
lthumb -22.7817 3.52422
rfemur -11.3302 -6.16656 15.1735
rtibia 45.6724
rfoot -19.802 16.8296
rtoes -6.9298
lfemur -15.3999 10.2251 -21.2915
ltibia 55.9377
lfoot -17.3453 2.93669
ltoes -24.3646
